<?xml version="1.0" encoding="utf-8"?>
<!-- Generator: Adobe Illustrator 27.8.0, SVG Export Plug-In . SVG Version: 6.00 Build 0)  -->
<svg version="1.1" id="Layer_1" xmlns="http://www.w3.org/2000/svg" xmlns:xlink="http://www.w3.org/1999/xlink" x="0px"
	y="0px" viewBox="0 0 346.6 346.6" style="enable-background:new 0 0 346.6 346.6;" xml:space="preserve">
	<style type="text/css">
		.st0 {
			fill: currentColor;
		}

		.st1 {
			fill: none;
			stroke: currentColor;
			stroke-width: 12;
			stroke-miterlimit: 10;
		}
	</style>
	<g>
		<path class="st0" d="M56.4,226.4V104.9H95c9.9,0,18.7,0.9,26.3,2.6s13.5,5.2,17.8,10.2s6.4,12.4,6.4,22.1c0,5.4-0.9,10.5-2.5,15.3
		c-1.7,4.7-4.9,8.7-9.7,12c-4.8,3.3-11.9,5.6-21.4,6.9l37.6,52.3h-20.9l-36.9-51.1H73.5v51.1L56.4,226.4L56.4,226.4z M73.5,160.9
		h22.7c5.9,0,11.3-0.4,16.1-1.3c4.8-0.9,8.6-2.8,11.4-5.7c2.8-3,4.3-7.5,4.3-13.7c0-6.3-1.4-10.9-4.3-13.8
		c-2.8-2.9-6.7-4.8-11.4-5.7c-4.8-0.9-10.2-1.4-16.1-1.4H73.5V160.9z" />
		<path class="st0" d="M168.8,226.4V104.9h28.4l32.3,99.2l32.4-99.2h28.4v121.4h-17.1V122.8L238,226.4h-16.9l-35.3-103.6v103.6H168.8
		z" />
	</g>
	<circle class="st1" cx="173.3" cy="173.3" r="165" />
</svg>